<svg width="1200" height="820" viewBox="0 0 1200 820" xmlns="http://www.w3.org/2000/svg" font-family="'Courier New', monospace">
  <defs>
    <!-- Background grid -->
    <pattern id="grid" width="40" height="40" patternUnits="userSpaceOnUse">
      <path d="M 40 0 L 0 0 0 40" fill="none" stroke="rgba(0,229,255,0.04)" stroke-width="1"/>
    </pattern>

    <!-- Glow filters -->
    <filter id="glow-cyan" x="-30%" y="-30%" width="160%" height="160%">
      <feGaussianBlur stdDeviation="4" result="blur"/>
      <feMerge><feMergeNode in="blur"/><feMergeNode in="SourceGraphic"/></feMerge>
    </filter>
    <filter id="glow-red" x="-30%" y="-30%" width="160%" height="160%">
      <feGaussianBlur stdDeviation="3" result="blur"/>
      <feMerge><feMergeNode in="blur"/><feMergeNode in="SourceGraphic"/></feMerge>
    </filter>
    <filter id="glow-green" x="-30%" y="-30%" width="160%" height="160%">
      <feGaussianBlur stdDeviation="3" result="blur"/>
      <feMerge><feMergeNode in="blur"/><feMergeNode in="SourceGraphic"/></feMerge>
    </filter>
    <filter id="shadow" x="-10%" y="-10%" width="120%" height="130%">
      <feDropShadow dx="0" dy="4" stdDeviation="8" flood-color="rgba(0,0,0,0.6)"/>
    </filter>

    <!-- Arrow markers -->
    <marker id="arrow-cyan" markerWidth="10" markerHeight="7" refX="9" refY="3.5" orient="auto">
      <polygon points="0 0, 10 3.5, 0 7" fill="#00e5ff"/>
    </marker>
    <marker id="arrow-orange" markerWidth="10" markerHeight="7" refX="9" refY="3.5" orient="auto">
      <polygon points="0 0, 10 3.5, 0 7" fill="#ffa502"/>
    </marker>
    <marker id="arrow-green" markerWidth="10" markerHeight="7" refX="9" refY="3.5" orient="auto">
      <polygon points="0 0, 10 3.5, 0 7" fill="#2ed573"/>
    </marker>
    <marker id="arrow-muted" markerWidth="10" markerHeight="7" refX="9" refY="3.5" orient="auto">
      <polygon points="0 0, 10 3.5, 0 7" fill="#4a6178"/>
    </marker>

    <!-- Clip paths for rounded rects -->
    <clipPath id="clip-browser">
      <rect x="18" y="18" width="244" height="144" rx="8"/>
    </clipPath>
  </defs>

  <!-- ── BACKGROUND ── -->
  <rect width="1200" height="820" fill="#0a0c0f"/>
  <rect width="1200" height="820" fill="url(#grid)"/>

  <!-- Subtle radial glow center -->
  <radialGradient id="center-glow" cx="50%" cy="50%" r="50%">
    <stop offset="0%" stop-color="rgba(0,229,255,0.04)"/>
    <stop offset="100%" stop-color="transparent"/>
  </radialGradient>
  <rect width="1200" height="820" fill="url(#center-glow)"/>

  <!-- ── TITLE ── -->
  <text x="600" y="44" text-anchor="middle" font-family="'Courier New', monospace" font-size="11" font-weight="bold" letter-spacing="6" fill="#4a6178">SYSTEM ARCHITECTURE</text>
  <text x="600" y="72" text-anchor="middle" font-family="Georgia, serif" font-size="26" font-weight="bold" fill="#ffffff" letter-spacing="-0.5">K8s Pod Debugger</text>
  <line x1="440" y1="84" x2="760" y2="84" stroke="rgba(0,229,255,0.3)" stroke-width="1"/>

  <!-- ══════════════════════════════════════════════════════════ -->
  <!-- LAYER 1: USER LAYER -->
  <!-- ══════════════════════════════════════════════════════════ -->

  <!-- Layer label -->
  <rect x="30" y="105" width="110" height="20" rx="3" fill="rgba(0,229,255,0.08)" stroke="rgba(0,229,255,0.2)" stroke-width="1"/>
  <text x="85" y="119" text-anchor="middle" font-size="9" letter-spacing="2" fill="#00e5ff" font-weight="bold">USER LAYER</text>

  <!-- Browser box -->
  <rect x="18" y="130" width="244" height="144" rx="8" fill="#0f1318" stroke="#1e2a35" stroke-width="1.5" filter="url(#shadow)"/>
  <rect x="18" y="130" width="244" height="30" rx="8" fill="#131920"/>
  <rect x="18" y="150" width="244" height="10" fill="#131920"/>
  <!-- Browser chrome dots -->
  <circle cx="38" cy="145" r="5" fill="#ff4757" opacity="0.8"/>
  <circle cx="54" cy="145" r="5" fill="#ffa502" opacity="0.8"/>
  <circle cx="70" cy="145" r="5" fill="#2ed573" opacity="0.8"/>
  <!-- URL bar -->
  <rect x="88" y="138" width="158" height="14" rx="3" fill="#0a0c0f" stroke="#1e2a35" stroke-width="1"/>
  <text x="167" y="149" text-anchor="middle" font-size="8" fill="#4a6178">localhost:5500/k8s-debugger.html</text>
  <!-- Browser content -->
  <rect x="28" y="168" width="224" height="16" rx="2" fill="#131920"/>
  <rect x="28" y="168" width="80" height="16" rx="2" fill="rgba(0,229,255,0.15)"/>
  <text x="68" y="180" text-anchor="middle" font-size="7" fill="#00e5ff">⟳ SCAN PODS</text>
  <rect x="28" y="192" width="224" height="24" rx="2" fill="#060809"/>
  <rect x="32" y="196" width="6" height="16" rx="1" fill="#ff4757"/>
  <text x="44" y="208" font-size="7" fill="#c8d6e5">crash-demo → CrashLoopBackOff</text>
  <rect x="28" y="222" width="224" height="24" rx="2" fill="#060809"/>
  <rect x="32" y="226" width="6" height="16" rx="1" fill="#ffa502"/>
  <text x="44" y="238" font-size="7" fill="#c8d6e5">imagepull-demo → ImagePullBackOff</text>
  <!-- Browser label -->
  <text x="140" y="288" text-anchor="middle" font-size="10" font-weight="bold" fill="#c8d6e5">K8s Debugger UI</text>
  <text x="140" y="302" text-anchor="middle" font-size="8" fill="#4a6178">k8s-debugger.html</text>

  <!-- ══════════════════════════════════════════════════════════ -->
  <!-- LAYER 2: LANGFLOW LAYER -->
  <!-- ══════════════════════════════════════════════════════════ -->

  <!-- Langflow boundary box -->
  <rect x="310" y="105" width="580" height="530" rx="10" fill="rgba(0,229,255,0.02)" stroke="rgba(0,229,255,0.12)" stroke-width="1.5" stroke-dasharray="6,4"/>
  <rect x="370" y="97" width="130" height="20" rx="3" fill="#0a0c0f"/>
  <text x="435" y="111" text-anchor="middle" font-size="9" letter-spacing="2" fill="#00e5ff" font-weight="bold">LANGFLOW ENGINE</text>

  <!-- ── Chat Input node ── -->
  <rect x="330" y="130" width="160" height="80" rx="6" fill="#0f1318" stroke="#1e2a35" stroke-width="1.5" filter="url(#shadow)"/>
  <rect x="330" y="130" width="160" height="24" rx="6" fill="#131920"/>
  <rect x="330" y="148" width="160" height="6" fill="#131920"/>
  <text x="363" y="146" font-size="9" fill="#4a6178">💬</text>
  <text x="378" y="146" font-size="9" font-weight="bold" fill="#c8d6e5">Chat Input</text>
  <text x="340" y="168" font-size="7.5" fill="#4a6178">Default prompt pre-loaded</text>
  <text x="340" y="180" font-size="7.5" fill="#4a6178">with namespace="default"</text>
  <text x="340" y="195" font-size="7.5" fill="#2ed573">→ Message</text>

  <!-- ── System Prompt node ── -->
  <rect x="330" y="240" width="160" height="90" rx="6" fill="#0f1318" stroke="#1e2a35" stroke-width="1.5" filter="url(#shadow)"/>
  <rect x="330" y="240" width="160" height="24" rx="6" fill="#131920"/>
  <rect x="330" y="258" width="160" height="6" fill="#131920"/>
  <text x="363" y="256" font-size="9" fill="#4a6178">📋</text>
  <text x="378" y="256" font-size="9" font-weight="bold" fill="#c8d6e5">System Prompt</text>
  <text x="340" y="276" font-size="7.5" fill="#4a6178">SRE expert persona</text>
  <text x="340" y="288" font-size="7.5" fill="#4a6178">Error state rules</text>
  <text x="340" y="300" font-size="7.5" fill="#4a6178">Output format spec</text>
  <text x="340" y="315" font-size="7.5" fill="#2ed573">→ Message</text>

  <!-- ── OpenAI Model node ── -->
  <rect x="330" y="360" width="160" height="90" rx="6" fill="#0f1318" stroke="#1e2a35" stroke-width="1.5" filter="url(#shadow)"/>
  <rect x="330" y="360" width="160" height="24" rx="6" fill="#131920"/>
  <rect x="330" y="378" width="160" height="6" fill="#131920"/>
  <text x="363" y="376" font-size="9" fill="#4a6178">🤖</text>
  <text x="378" y="376" font-size="9" font-weight="bold" fill="#c8d6e5">OpenAI Model</text>
  <text x="340" y="396" font-size="7.5" fill="#4a6178">Model: gpt-4o</text>
  <text x="340" y="408" font-size="7.5" fill="#4a6178">Temp: 0.1 (deterministic)</text>
  <text x="340" y="420" font-size="7.5" fill="#4a6178">Max tokens: 4096</text>
  <text x="340" y="435" font-size="7.5" fill="#2ed573">→ LanguageModel</text>

  <!-- ── Kubectl Tool node ── -->
  <rect x="330" y="480" width="160" height="120" rx="6" fill="#0f1318" stroke="rgba(255,165,2,0.4)" stroke-width="1.5" filter="url(#shadow)"/>
  <rect x="330" y="480" width="160" height="24" rx="6" fill="rgba(255,165,2,0.08)"/>
  <rect x="330" y="498" width="160" height="6" fill="rgba(255,165,2,0.08)"/>
  <text x="363" y="496" font-size="9" fill="#ffa502">⚙</text>
  <text x="378" y="496" font-size="9" font-weight="bold" fill="#c8d6e5">Kubectl Pod Analyzer</text>
  <text x="340" y="516" font-size="7.5" fill="#4a6178">Custom Component</text>
  <text x="340" y="528" font-size="7.5" fill="#4a6178">Scans namespace for errors</text>
  <text x="340" y="540" font-size="7.5" fill="#4a6178">Runs: logs, describe, events</text>
  <text x="340" y="552" font-size="7.5" fill="#4a6178">Path: /opt/homebrew/bin/kubectl</text>
  <text x="340" y="564" font-size="7.5" fill="#4a6178">tool_mode=True on inputs</text>
  <text x="340" y="579" font-size="7.5" fill="#ffa502">→ Tool (Toolset)</text>

  <!-- ── Tool Calling Agent node ── (CENTER) -->
  <rect x="545" y="240" width="180" height="170" rx="6" fill="#0f1318" stroke="rgba(0,229,255,0.5)" stroke-width="2" filter="url(#shadow)"/>
  <rect x="545" y="240" width="180" height="28" rx="6" fill="rgba(0,229,255,0.1)"/>
  <rect x="545" y="262" width="180" height="6" fill="rgba(0,229,255,0.1)"/>
  <!-- Agent glow accent -->
  <rect x="545" y="240" width="4" height="170" rx="2" fill="#00e5ff" opacity="0.6"/>
  <text x="578" y="258" font-size="9" fill="#00e5ff">⚡</text>
  <text x="594" y="258" font-size="9" font-weight="bold" fill="#ffffff">Tool Calling Agent</text>
  <text x="555" y="284" font-size="7.5" fill="#4a6178">Orchestrates the full flow</text>
  <text x="555" y="298" font-size="7.5" fill="#4a6178">Calls analyze_pods tool</text>
  <text x="555" y="312" font-size="7.5" fill="#4a6178">Parses logs/describe/events</text>
  <text x="555" y="326" font-size="7.5" fill="#4a6178">Generates RCA per pod</text>
  <text x="555" y="340" font-size="7.5" fill="#4a6178">Max iterations: 15</text>
  <text x="555" y="354" font-size="7.5" fill="#4a6178">Handle parsing errors: true</text>
  <text x="555" y="368" font-size="7.5" fill="#4a6178">Verbose: true</text>
  <text x="555" y="395" font-size="7.5" fill="#2ed573">→ Message (response)</text>

  <!-- ── Chat Output node ── -->
  <rect x="545" y="450" width="180" height="80" rx="6" fill="#0f1318" stroke="rgba(46,213,115,0.4)" stroke-width="1.5" filter="url(#shadow)"/>
  <rect x="545" y="450" width="180" height="24" rx="6" fill="rgba(46,213,115,0.08)"/>
  <rect x="545" y="468" width="180" height="6" fill="rgba(46,213,115,0.08)"/>
  <text x="578" y="466" font-size="9" fill="#2ed573">💬</text>
  <text x="594" y="466" font-size="9" font-weight="bold" fill="#c8d6e5">Chat Output</text>
  <text x="555" y="486" font-size="7.5" fill="#4a6178">Stores message to session</text>
  <text x="555" y="498" font-size="7.5" fill="#4a6178">Routes to API response</text>
  <text x="555" y="510" font-size="7.5" fill="#4a6178">Sender: Machine / AI</text>
  <text x="555" y="518" font-size="7.5" fill="#2ed573">→ API JSON response</text>

  <!-- ══════════════════════════════════════════════════════════ -->
  <!-- LAYER 3: KUBERNETES LAYER -->
  <!-- ══════════════════════════════════════════════════════════ -->

  <!-- K8s boundary -->
  <rect x="920" y="105" width="258" height="530" rx="10" fill="rgba(255,165,2,0.02)" stroke="rgba(255,165,2,0.15)" stroke-width="1.5" stroke-dasharray="6,4"/>
  <rect x="960" y="97" width="148" height="20" rx="3" fill="#0a0c0f"/>
  <text x="1034" y="111" text-anchor="middle" font-size="9" letter-spacing="2" fill="#ffa502" font-weight="bold">KUBERNETES CLUSTER</text>

  <!-- kubectl binary -->
  <rect x="938" y="130" width="220" height="70" rx="6" fill="#0f1318" stroke="#1e2a35" stroke-width="1.5" filter="url(#shadow)"/>
  <rect x="938" y="130" width="220" height="22" rx="6" fill="#131920"/>
  <rect x="938" y="146" width="220" height="6" fill="#131920"/>
  <text x="971" y="144" font-size="9" fill="#4a6178">$</text>
  <text x="984" y="144" font-size="9" font-weight="bold" fill="#c8d6e5">kubectl binary</text>
  <text x="948" y="162" font-size="7.5" fill="#4a6178">/opt/homebrew/bin/kubectl</text>
  <text x="948" y="174" font-size="7.5" fill="#4a6178">~/.kube/config → minikube</text>
  <text x="948" y="186" font-size="7.5" fill="#ffa502">subprocess.run() calls</text>

  <!-- K8s API Server -->
  <rect x="938" y="222" width="220" height="70" rx="6" fill="#0f1318" stroke="#1e2a35" stroke-width="1.5" filter="url(#shadow)"/>
  <rect x="938" y="222" width="220" height="22" rx="6" fill="#131920"/>
  <rect x="938" y="238" width="220" height="6" fill="#131920"/>
  <text x="971" y="236" font-size="9" fill="#4a6178">⎈</text>
  <text x="984" y="236" font-size="9" font-weight="bold" fill="#c8d6e5">Kubernetes API Server</text>
  <text x="948" y="254" font-size="7.5" fill="#4a6178">Receives kubectl requests</text>
  <text x="948" y="266" font-size="7.5" fill="#4a6178">Auth via kubeconfig</text>
  <text x="948" y="278" font-size="7.5" fill="#ffa502">Returns pod data</text>

  <!-- Pods section -->
  <rect x="938" y="314" width="220" height="290" rx="6" fill="#0f1318" stroke="#1e2a35" stroke-width="1.5" filter="url(#shadow)"/>
  <rect x="938" y="314" width="220" height="22" rx="6" fill="#131920"/>
  <rect x="938" y="330" width="220" height="6" fill="#131920"/>
  <text x="971" y="328" font-size="9" fill="#4a6178">📦</text>
  <text x="984" y="328" font-size="9" font-weight="bold" fill="#c8d6e5">Pods (default namespace)</text>

  <!-- Pod: crash-demo -->
  <rect x="948" y="344" width="200" height="56" rx="4" fill="#060809" stroke="rgba(255,71,87,0.3)" stroke-width="1"/>
  <rect x="948" y="344" width="4" height="56" rx="2" fill="#ff4757"/>
  <text x="960" y="358" font-size="8" font-weight="bold" fill="#ff4757">✕ crash-demo</text>
  <text x="960" y="370" font-size="7.5" fill="#4a6178">State: CrashLoopBackOff</text>
  <text x="960" y="382" font-size="7.5" fill="#4a6178">Image: busybox (exit 1)</text>
  <text x="960" y="393" font-size="7.5" fill="#4a6178">Restarts: 5+</text>

  <!-- Pod: imagepull-demo -->
  <rect x="948" y="408" width="200" height="56" rx="4" fill="#060809" stroke="rgba(255,165,2,0.3)" stroke-width="1"/>
  <rect x="948" y="408" width="4" height="56" rx="2" fill="#ffa502"/>
  <text x="960" y="422" font-size="8" font-weight="bold" fill="#ffa502">⊗ imagepullback-demo</text>
  <text x="960" y="434" font-size="7.5" fill="#4a6178">State: ImagePullBackOff</text>
  <text x="960" y="446" font-size="7.5" fill="#4a6178">Image: busboy (not found)</text>
  <text x="960" y="457" font-size="7.5" fill="#4a6178">Restarts: 0</text>

  <!-- Pod: healthy -->
  <rect x="948" y="472" width="200" height="42" rx="4" fill="#060809" stroke="rgba(46,213,115,0.2)" stroke-width="1"/>
  <rect x="948" y="472" width="4" height="42" rx="2" fill="#2ed573"/>
  <text x="960" y="486" font-size="8" font-weight="bold" fill="#2ed573">● healthy-app</text>
  <text x="960" y="498" font-size="7.5" fill="#4a6178">State: Running</text>
  <text x="960" y="509" font-size="7.5" fill="#4a6178">Ready: 1/1</text>

  <!-- kubectl commands labels -->
  <text x="948" y="530" font-size="7" fill="#4a6178">kubectl logs → kubectl describe → kubectl get events</text>
  <text x="948" y="542" font-size="7" fill="#4a6178">--field-selector involvedObject.name=&lt;pod&gt;</text>
  <text x="948" y="556" font-size="7" fill="#4a6178">--previous --tail=100 --sort-by=.lastTimestamp</text>
  <text x="948" y="574" font-size="7.5" fill="#ffa502">Raw stdout → Component → Agent → RCA</text>
  <text x="948" y="586" font-size="7.5" fill="#ffa502">namespace scan + per-pod deep dive</text>
  <text x="948" y="598" font-size="7.5" fill="#ffa502">ERROR_STATES: 11 failure types detected</text>

  <!-- ══════════════════════════════════════════════════════════ -->
  <!-- CONNECTION ARROWS -->
  <!-- ══════════════════════════════════════════════════════════ -->

  <!-- 1. Browser → Langflow API (HTTP POST) -->
  <line x1="262" y1="210" x2="310" y2="210" stroke="#00e5ff" stroke-width="1.5" stroke-dasharray="5,3" marker-end="url(#arrow-cyan)" opacity="0.7"/>
  <rect x="263" y="197" width="46" height="14" rx="2" fill="#0a0c0f"/>
  <text x="286" y="207" text-anchor="middle" font-size="7" fill="#00e5ff">HTTP POST</text>

  <!-- 2. Chat Input → Agent -->
  <line x1="490" y1="170" x2="545" y2="290" stroke="#2ed573" stroke-width="1.5" marker-end="url(#arrow-green)" opacity="0.7"/>
  <rect x="496" y="218" width="50" height="14" rx="2" fill="#0a0c0f"/>
  <text x="521" y="228" text-anchor="middle" font-size="7" fill="#2ed573">Message</text>

  <!-- 3. System Prompt → Agent -->
  <line x1="490" y1="300" x2="545" y2="330" stroke="#4a6178" stroke-width="1.5" marker-end="url(#arrow-muted)" opacity="0.7"/>
  <rect x="492" y="308" width="52" height="14" rx="2" fill="#0a0c0f"/>
  <text x="518" y="318" text-anchor="middle" font-size="7" fill="#4a6178">sys_prompt</text>

  <!-- 4. OpenAI → Agent -->
  <line x1="490" y1="400" x2="545" y2="370" stroke="#4a6178" stroke-width="1.5" marker-end="url(#arrow-muted)" opacity="0.7"/>
  <rect x="492" y="375" width="50" height="14" rx="2" fill="#0a0c0f"/>
  <text x="517" y="385" text-anchor="middle" font-size="7" fill="#4a6178">LLM</text>

  <!-- 5. Kubectl Tool → Agent -->
  <line x1="490" y1="530" x2="545" y2="390" stroke="#ffa502" stroke-width="1.5" marker-end="url(#arrow-orange)" opacity="0.8"/>
  <rect x="490" y="450" width="52" height="14" rx="2" fill="#0a0c0f"/>
  <text x="516" y="460" text-anchor="middle" font-size="7" fill="#ffa502">Tool</text>

  <!-- 6. Agent → Chat Output -->
  <line x1="635" y1="410" x2="635" y2="450" stroke="#2ed573" stroke-width="1.5" marker-end="url(#arrow-green)" opacity="0.7"/>
  <rect x="598" y="427" width="54" height="14" rx="2" fill="#0a0c0f"/>
  <text x="625" y="437" text-anchor="middle" font-size="7" fill="#2ed573">response</text>

  <!-- 7. Tool → kubectl binary (subprocess) -->
  <line x1="890" y1="530" x2="938" y2="190" stroke="#ffa502" stroke-width="1.5" stroke-dasharray="4,3" marker-end="url(#arrow-orange)" opacity="0.6"/>
  <rect x="892" y="330" width="55" height="14" rx="2" fill="#0a0c0f"/>
  <text x="919" y="340" text-anchor="middle" font-size="7" fill="#ffa502">subprocess</text>

  <!-- 8. kubectl → API Server -->
  <line x1="1048" y1="200" x2="1048" y2="222" stroke="#ffa502" stroke-width="1.5" marker-end="url(#arrow-orange)" opacity="0.7"/>

  <!-- 9. API Server → Pods -->
  <line x1="1048" y1="292" x2="1048" y2="314" stroke="#ffa502" stroke-width="1.5" marker-end="url(#arrow-orange)" opacity="0.7"/>

  <!-- 10. Chat Output → API response back to browser -->
  <path d="M 545 490 Q 400 490 262 280" stroke="#2ed573" stroke-width="1.5" stroke-dasharray="5,3" fill="none" marker-end="url(#arrow-green)" opacity="0.5"/>
  <rect x="370" y="460" width="72" height="14" rx="2" fill="#0a0c0f"/>
  <text x="406" y="470" text-anchor="middle" font-size="7" fill="#2ed573">JSON response</text>

  <!-- ══════════════════════════════════════════════════════════ -->
  <!-- BOTTOM LEGEND -->
  <!-- ══════════════════════════════════════════════════════════ -->

  <rect x="30" y="678" width="1140" height="120" rx="8" fill="#0f1318" stroke="#1e2a35" stroke-width="1"/>
  <text x="600" y="700" text-anchor="middle" font-size="9" letter-spacing="3" fill="#4a6178" font-weight="bold">LEGEND &amp; DATA FLOW</text>

  <!-- Flow steps -->
  <rect x="50" y="710" width="14" height="14" rx="2" fill="rgba(0,229,255,0.2)" stroke="#00e5ff" stroke-width="1"/>
  <text x="58" y="721" text-anchor="middle" font-size="9" fill="#00e5ff" font-weight="bold">1</text>
  <text x="72" y="721" font-size="8" fill="#c8d6e5">User opens browser → enters namespace → clicks SCAN</text>

  <rect x="50" y="730" width="14" height="14" rx="2" fill="rgba(0,229,255,0.2)" stroke="#00e5ff" stroke-width="1"/>
  <text x="58" y="741" text-anchor="middle" font-size="9" fill="#00e5ff" font-weight="bold">2</text>
  <text x="72" y="741" font-size="8" fill="#c8d6e5">Browser sends HTTP POST to Langflow /api/v1/run/&lt;flow-id&gt; with prompt</text>

  <rect x="50" y="750" width="14" height="14" rx="2" fill="rgba(0,229,255,0.2)" stroke="#00e5ff" stroke-width="1"/>
  <text x="58" y="761" text-anchor="middle" font-size="9" fill="#00e5ff" font-weight="bold">3</text>
  <text x="72" y="761" font-size="8" fill="#c8d6e5">Tool Calling Agent receives prompt, calls analyze_pods tool with namespace</text>

  <rect x="50" y="770" width="14" height="14" rx="2" fill="rgba(0,229,255,0.2)" stroke="#00e5ff" stroke-width="1"/>
  <text x="58" y="781" text-anchor="middle" font-size="9" fill="#00e5ff" font-weight="bold">4</text>
  <text x="72" y="781" font-size="8" fill="#c8d6e5">Custom component runs kubectl get pods → logs → describe → events via subprocess</text>

  <rect x="600" y="710" width="14" height="14" rx="2" fill="rgba(0,229,255,0.2)" stroke="#00e5ff" stroke-width="1"/>
  <text x="607" y="721" text-anchor="middle" font-size="9" fill="#00e5ff" font-weight="bold">5</text>
  <text x="622" y="721" font-size="8" fill="#c8d6e5">kubectl reads ~/.kube/config → authenticates to cluster API server</text>

  <rect x="600" y="730" width="14" height="14" rx="2" fill="rgba(0,229,255,0.2)" stroke="#00e5ff" stroke-width="1"/>
  <text x="607" y="741" text-anchor="middle" font-size="9" fill="#00e5ff" font-weight="bold">6</text>
  <text x="622" y="741" font-size="8" fill="#c8d6e5">Raw kubectl stdout returned to agent → LLM generates per-pod RCA + Fix</text>

  <rect x="600" y="750" width="14" height="14" rx="2" fill="rgba(0,229,255,0.2)" stroke="#00e5ff" stroke-width="1"/>
  <text x="607" y="761" text-anchor="middle" font-size="9" fill="#00e5ff" font-weight="bold">7</text>
  <text x="622" y="761" font-size="8" fill="#c8d6e5">Agent response → Chat Output → JSON returned to browser</text>

  <rect x="600" y="770" width="14" height="14" rx="2" fill="rgba(0,229,255,0.2)" stroke="#00e5ff" stroke-width="1"/>
  <text x="607" y="781" text-anchor="middle" font-size="9" fill="#00e5ff" font-weight="bold">8</text>
  <text x="622" y="781" font-size="8" fill="#c8d6e5">Browser parses response → renders pods, logs, describe, events, RCA, Fix in tabs</text>

  <!-- Connection type legend -->
  <line x1="50" y1="800" x2="90" y2="800" stroke="#00e5ff" stroke-width="1.5" stroke-dasharray="5,3"/>
  <text x="95" y="804" font-size="8" fill="#4a6178">HTTP / API call</text>
  <line x1="200" y1="800" x2="240" y2="800" stroke="#ffa502" stroke-width="1.5" stroke-dasharray="4,3"/>
  <text x="245" y="804" font-size="8" fill="#4a6178">subprocess / kubectl</text>
  <line x1="380" y1="800" x2="420" y2="800" stroke="#2ed573" stroke-width="1.5"/>
  <text x="425" y="804" font-size="8" fill="#4a6178">Langflow node wiring</text>
  <line x1="560" y1="800" x2="600" y2="800" stroke="#4a6178" stroke-width="1.5"/>
  <text x="605" y="804" font-size="8" fill="#4a6178">LLM / prompt input</text>

  <!-- Version stamp -->
  <text x="1170" y="814" text-anchor="end" font-size="7" fill="#1e2a35">K8s Pod Debugger · Langflow + kubectl · 2026</text>
</svg>
